<svg xmlns="http://www.w3.org/2000/svg" viewBox="0 0 100 100" width="100" height="100">
  <circle cx="50" cy="50" r="50" fill="#24292F"/>
  <path d="M39.9 55.3c-7.4 0-13.5-6.1-13.5-13.5 0-7.4 6.1-13.5 13.5-13.5s13.5 6.1 13.5 13.5c0 7.4-6.1 13.5-13.5 13.5z" fill="#fff"/>
  <path d="M32.7 44.6c-2.4 0-4.3-1.9-4.3-4.3s1.9-4.3 4.3-4.3c2.4 0 4.3 1.9 4.3 4.3 0 2.4-1.9 4.3-4.3 4.3z" fill="#fff"/>
  <path d="M69.1 44.6c-2.4 0-4.3-1.9-4.3-4.3s1.9-4.3 4.3-4.3c2.4 0 4.3 1.9 4.3 4.3 0 2.4-1.9 4.3-4.3 4.3z" fill="#fff"/>
  <path d="M39.9 56.6c-4.7 0-8.4 3.8-8.4 8.4s3.8 8.4 8.4 8.4c4.7 0 8.4-3.8 8.4-8.4s-3.8-8.4-8.4-8.4z" fill="#fff"/>
  <path d="M60 56.6c-4.7 0-8.4 3.8-8.4 8.4s3.8 8.4 8.4 8.4c4.7 0 8.4-3.8 8.4-8.4s-3.8-8.4-8.4-8.4z" fill="#fff"/>
</svg>
